<mxfile host="app.diagrams.net" agent="Mozilla/5.0 (Windows NT 10.0; Win64; x64) AppleWebKit/537.36 (KHTML, like Gecko) Chrome/136.0.0.0 Safari/537.36" version="27.0.9">
  <diagram name="PÃ¡gina-1" id="Vq99Ms_KkJOUKtjacHWf">
    <mxGraphModel dx="784" dy="1136" grid="1" gridSize="10" guides="1" tooltips="1" connect="1" arrows="1" fold="1" page="1" pageScale="1" pageWidth="827" pageHeight="1169" math="0" shadow="0">
      <root>
        <mxCell id="0" />
        <mxCell id="1" parent="0" />
        <mxCell id="nUzkdtZB0xW63iCa-Nw7-23" value="Langraph" style="html=1;overflow=block;blockSpacing=1;whiteSpace=wrap;fontSize=16.7;fontStyle=0;align=center;spacing=9;verticalAlign=middle;strokeOpacity=0;fillOpacity=100;rounded=1;absoluteArcSize=1;arcSize=9;fillColor=#fff7a1;strokeWidth=1.5;lucidId=Uv5cd.NyrXPX;" parent="1" vertex="1">
          <mxGeometry x="130" y="343" width="109" height="160" as="geometry" />
        </mxCell>
        <mxCell id="nUzkdtZB0xW63iCa-Nw7-29" value="" style="html=1;overflow=block;blockSpacing=1;whiteSpace=wrap;fontSize=13;align=center;spacing=3.8;strokeOpacity=100;fillOpacity=100;rounded=1;absoluteArcSize=1;arcSize=9;fillColor=none;dashed=1;fixDash=1;dashPattern=8 8;strokeWidth=1.5;lucidId=v2LcKO9BX8t_;fontStyle=0" parent="1" vertex="1">
          <mxGeometry x="511" y="130" width="239" height="550" as="geometry" />
        </mxCell>
        <mxCell id="nUzkdtZB0xW63iCa-Nw7-30" value="Agents" style="html=1;overflow=block;blockSpacing=1;whiteSpace=wrap;fontSize=16.7;fontStyle=0;align=left;spacing=0;verticalAlign=middle;strokeOpacity=100;rounded=1;absoluteArcSize=1;arcSize=9;fillColor=none;strokeWidth=NaN;lucidId=v2Lc4-h5E1sQ;strokeColor=none;" parent="1" vertex="1">
          <mxGeometry x="525" y="130" width="132" height="53" as="geometry" />
        </mxCell>
        <mxCell id="nUzkdtZB0xW63iCa-Nw7-31" value="Voting" style="html=1;overflow=block;blockSpacing=1;whiteSpace=wrap;fontSize=16.7;fontColor=#ffffff;fontStyle=0;align=center;spacing=9;strokeOpacity=0;fillOpacity=100;rounded=1;absoluteArcSize=1;arcSize=9;fillColor=#4c535d;strokeWidth=1.5;lucidId=AWLcgVHqaEJb;" parent="1" vertex="1">
          <mxGeometry x="549" y="372" width="165" height="102" as="geometry" />
        </mxCell>
        <mxCell id="nUzkdtZB0xW63iCa-Nw7-32" value="Budget" style="html=1;overflow=block;blockSpacing=1;whiteSpace=wrap;fontSize=16.7;fontColor=#ffffff;fontStyle=0;align=center;spacing=9;strokeOpacity=0;fillOpacity=100;rounded=1;absoluteArcSize=1;arcSize=9;fillColor=#4c535d;strokeWidth=1.5;lucidId=kXLc-Uf29qqT;" parent="1" vertex="1">
          <mxGeometry x="549" y="530" width="165" height="102" as="geometry" />
        </mxCell>
        <mxCell id="nUzkdtZB0xW63iCa-Nw7-33" value="Attendance" style="html=1;overflow=block;blockSpacing=1;whiteSpace=wrap;fontSize=16.7;fontColor=#ffffff;fontStyle=0;align=center;spacing=9;strokeOpacity=0;fillOpacity=100;rounded=1;absoluteArcSize=1;arcSize=9;fillColor=#4c535d;strokeWidth=1.5;lucidId=NZLcRJQl1mac;" parent="1" vertex="1">
          <mxGeometry x="549" y="215" width="165" height="102" as="geometry" />
        </mxCell>
        <mxCell id="nUzkdtZB0xW63iCa-Nw7-34" value="" style="html=1;jettySize=18;whiteSpace=wrap;fontSize=13;strokeColor=default;strokeWidth=1.5;rounded=1;arcSize=12;edgeStyle=orthogonalEdgeStyle;startArrow=block;startFill=1;endArrow=block;endFill=1;exitX=1;exitY=0.5;exitPerimeter=0;entryX=0;entryY=0.5;entryPerimeter=0;lucidId=WZLcBSNOz16.;fontStyle=0" parent="1" source="nUzkdtZB0xW63iCa-Nw7-23" target="nUzkdtZB0xW63iCa-Nw7-33" edge="1">
          <mxGeometry width="100" height="100" relative="1" as="geometry">
            <Array as="points" />
          </mxGeometry>
        </mxCell>
        <mxCell id="nUzkdtZB0xW63iCa-Nw7-36" value="" style="html=1;jettySize=18;whiteSpace=wrap;fontSize=13;strokeColor=default;strokeWidth=1.5;rounded=1;arcSize=12;edgeStyle=orthogonalEdgeStyle;startArrow=block;startFill=1;endArrow=block;endFill=1;exitX=1;exitY=0.5;exitPerimeter=0;entryX=0;entryY=0.5;entryPerimeter=0;lucidId=TWLcaWQ_HGru;fontStyle=0" parent="1" source="nUzkdtZB0xW63iCa-Nw7-23" target="nUzkdtZB0xW63iCa-Nw7-31" edge="1">
          <mxGeometry width="100" height="100" relative="1" as="geometry">
            <Array as="points" />
          </mxGeometry>
        </mxCell>
        <mxCell id="nUzkdtZB0xW63iCa-Nw7-39" value="mcp" style="html=1;overflow=block;blockSpacing=1;whiteSpace=wrap;fontSize=14;align=center;spacing=0;strokeOpacity=100;fillOpacity=100;rounded=1;absoluteArcSize=1;arcSize=9;fillColor=#ffffff;strokeWidth=1.5;strokeColor=none;lucidId=d17c8kyNsL7X;fontStyle=0" parent="1" vertex="1">
          <mxGeometry x="270" y="400" width="98" height="23" as="geometry" />
        </mxCell>
        <mxCell id="4VEdxY7Z0qc2LGkqTbHS-1" value="" style="html=1;jettySize=18;whiteSpace=wrap;fontSize=13;strokeColor=default;strokeWidth=1.5;rounded=1;arcSize=12;edgeStyle=orthogonalEdgeStyle;startArrow=block;startFill=1;endArrow=block;endFill=1;entryX=1;entryY=0.5;lucidId=WZLcBSNOz16.;fontStyle=0;entryDx=0;entryDy=0;" edge="1" parent="1" source="nUzkdtZB0xW63iCa-Nw7-32" target="nUzkdtZB0xW63iCa-Nw7-23">
          <mxGeometry width="100" height="100" relative="1" as="geometry">
            <Array as="points" />
            <mxPoint x="140" y="617" as="sourcePoint" />
            <mxPoint x="450" y="460" as="targetPoint" />
          </mxGeometry>
        </mxCell>
      </root>
    </mxGraphModel>
  </diagram>
</mxfile>
